<svg viewBox="0 0 200 200" xmlns="http://www.w3.org/2000/svg" xmlns:xlink="http://www.w3.org/1999/xlink" role="img" aria-label="TWINS COIN">
  <defs>
    <path id="tcTop" d="M21,100 A79,79 0 0 1 179,100"/>
    <path id="tcBot" d="M21,100 A79,79 0 0 0 179,100"/>
  </defs>
  <circle cx="100" cy="100" r="97" fill="#0b0b0b"/>
  <circle cx="100" cy="100" r="95" fill="none" stroke="#3f3f3f" stroke-width="8" stroke-dasharray="2 3"/>
  <circle cx="100" cy="100" r="89" fill="#282828"/>
  <circle cx="100" cy="100" r="89" fill="none" stroke="#6a6a6a" stroke-width="1"/>
  <g fill="#d2d2d2" font-family="Georgia,serif" font-size="12" letter-spacing="2.5" font-weight="700" dominant-baseline="central">
    <text><textPath href="#tcTop" xlink:href="#tcTop" startOffset="50%" text-anchor="middle">TWINS · COIN</textPath></text>
    <text><textPath href="#tcBot" xlink:href="#tcBot" startOffset="50%" text-anchor="middle">LG TWINS</textPath></text>
  </g>
  <rect x="-3" y="-3" width="6" height="6" transform="translate(21,100) rotate(45)" fill="#d2d2d2"/>
  <rect x="-3" y="-3" width="6" height="6" transform="translate(179,100) rotate(45)" fill="#d2d2d2"/>
  <circle cx="100" cy="100" r="70" fill="#ffffff"/>
  <circle cx="100" cy="100" r="70" fill="none" stroke="#cfcfcf" stroke-width="1"/>
  <g transform="translate(40,35) scale(0.6)" stroke-linejoin="round">
    <path d="M34,46 L166,46 L166,78 L116,78 L116,172 L84,172 L84,78 L34,78 Z" fill="none" stroke="#0b0b0b" stroke-width="14.4"/>
    <path d="M34,46 L166,46 L166,78 L116,78 L116,172 L84,172 L84,78 L34,78 Z" fill="none" stroke="#ffffff" stroke-width="8"/>
    <path d="M34,46 L166,46 L166,78 L116,78 L116,172 L84,172 L84,78 L34,78 Z" fill="#C4122E"/>
  </g>
</svg>
